<svg version="1" xmlns="http://www.w3.org/2000/svg" width="1068" height="1068" viewBox="0 0 801.000000 801.000000"><path d="M624.2 276.6c-3 .8-11.3 4.2-18.5 7.6-8.9 4.3-13.2 5.9-13.5 5-.7-2.3-3.3-4.2-5.8-4.2-2 0-3.3 1.4-6.5 6.5-2.3 3.6-4.7 6.5-5.3 6.5-.7 0-2.2-1.8-3.5-4-1.2-2.2-2.6-4.2-3.2-4.6-.6-.3-3.3.6-6.2 1.9-7.4 3.7-16.7 7.4-20.2 8.3-4.7 1.1-10.8 4-13.2 6.1-2.7 2.4-5.4 8.5-5.5 12.2-.1 4.2 3.2 13.5 4.4 12.3.7-.7.3-2.5-1.2-5.7s-2-5.5-1.6-7.8c.7-3.6 4.4-10.2 5.3-9.3.3.3-.2 1.8-1.2 3.3-3.9 5.9-.9 16.7 5.5 19.3 2.8 1.1 9.1.6 13-1 6.6-2.9 8.5-13 3.6-19.4-3.8-5-6-5.9-12.5-5.3-5.5.6-5.5.5-2.7-1 3.2-1.7 8.6-2.1 13.1-1l3 .8-2.4-1.9-2.4-1.9 5.9-2.2c3.2-1.2 7.6-3.1 9.6-4.2l3.8-2 2.3 2.5c6.5 7 5.9 23-1.4 36.7-4.3 8.1-6.2 9.1-18.9 10.4-12.7 1.4-13.3 1.5-18.9 3-1.6.5-1.8 0-1.6-3.5.1-2.2-.2-4.3-.7-4.6-.5-.3-.8 2.1-.7 5.7.3 8.2 2.9 11.2 12.2 14.4 6.2 2 7.2 2.1 13.4 1 11-2.1 16.3-3.2 24.5-5.4 9-2.4 9.6-2.5 8-.9-.7.7-1.1 2.6-1.1 4.2.1 2.1.3 2.5.6 1.2.3-1.1 1.6-3.6 3-5.7 2.1-3.2 2.4-4.7 2.2-10.6-.3-7.6-1.9-16.4-4.9-26.8-2-6.7-2-6.8-1.5-2 .4 2.7 1 6.3 1.5 8 1.5 5 2.1 8.6 2.7 18.2l.6 9.2-2.7 1.1c-2.9 1.1-17.6 4.9-21.6 5.6-1.4.3-3.8.8-5.5 1.3-5 1.3-15.8 1.3-19.7-.1-2-.7-5.1-2.6-6.9-4.2-3-2.7-3.1-3-1.5-4.2 1.9-1.3 9-2.5 24-3.9 3.7-.4 6.8-1.3 8.4-2.6 5.8-4.5 10.2-13.3 11.6-23.1.3-2.1 1-5.7 1.5-8 .6-2.5.6-4.7.1-5.3-.5-.6-.5-1.7 0-2.5 1.1-1.9 1.9-1 2.2 2.3.4 4.4 1.5 3.1 2.2-2.6.8-6 4.3-13 7-13.5 2.5-.5 4.5 2.6 4.6 7 0 2.1.5 3.8 1.1 3.8.6 0 .9-.6.6-1.3-.9-2.4.5-3.3 13.9-10 15-7.4 17.8-8.4 25.4-9.3 3-.3 5.7-.8 5.9-1 1.1-1-9-.1-13.7 1.2zm-77.8 30.7c3.4 2.3 5.9 8.3 5.3 12.4-.7 4.3-2.3 6.2-6.4 8-7.5 3.1-13.7.6-16.7-6.7-1.3-3.2-1.2-3.9.7-7.9 3.5-7.5 10.7-9.9 17.1-5.8z"/><path d="M538 309.5c-.8.9-.8 1.5-.2 1.5 1.2 0 2.6-1.9 1.9-2.6-.2-.2-1 .2-1.7 1.1zM540.4 311.1c-.7 1.2 1.2 2.9 3.4 2.9.6 0 1.2-.9 1.2-2 0-2.2-3.4-2.8-4.6-.9zM532.8 322.7c1.3 2.3 3 3.7 5.5 4.6 3 1.1 1.8-.7-2.4-3.7-3.3-2.3-3.9-2.5-3.1-.9zM650 277.7c20.1 5.6 29 11.6 38.6 26 5.8 8.8 11.4 21.4 11.4 26.1 0 .9.5 2.4 1 3.2 1.4 2 .4-5.8-1.4-10.8-4.8-13.4-9.8-21.3-19.3-30.7-7.5-7.3-14.7-11.3-25.4-13.9-8.3-2-12.3-2-4.9.1zM630.6 289.3c-2.6 2.8-6.2 10.7-8.1 17.7-1.7 6.6-5.8 19.5-6.7 21.5-.8 1.8-2.7 3-6.7 4.2-4.7 1.5-5.9 2.4-7.4 5.6-2.3 4.7-3.8 3.9-3.1-1.6.4-3.3 0-5.5-2.1-10-1.5-3.2-2.9-5.6-3.2-5.3-.3.2.5 2.6 1.7 5.3 2.4 5.2 2.7 10.4 1.1 17.4-1.4 6-1.5 5.7 2.2 6.4 5.5 1.1 6.5 1.5 7.1 3 .9 2.5-.9 2.5-6.3 0-3.9-1.9-5.5-3.2-6.3-5.6l-1.1-3.1-1.2 2.8c-.7 1.6-1.9 3.5-2.8 4.3-1 .7-1.7 2.5-1.7 4 0 2 .2 2.3 1 1.1.7-1.1.9-.7.7 1.5-.2 1.7-.7 3.6-1.1 4.3-.4.6-.2 2 .4 3.1.7 1.4.7 2.2 0 2.6-1.6 1-4-1.4-3.3-3.2.4-1.1.2-1.4-.5-.9-1.4.9-1.6 4.6-.3 4.6 2.6 0 4.1 3.4 4.1 9.1v5.9h-5c-3.8 0-5.4.5-7 2.2-1.1 1.2-2 2.8-2 3.5 0 1.3 3.6 2.6 6.1 2.3.8-.2 2.9-.2 4.7-.1l3.3.1-.3 35.5c-.2 19.6-.1 36 .2 36.5.5.8 7.9.8 16.5.1.7-.1.9-11.6.7-35.9l-.4-35.7h4.1c4 0 4.1 0 4.2 3.5.2 8-.2 52.1-.5 59.7-.2 4.6-.1 8.3.3 8.4.9.1 14.3.1 16.1 0 1.3-.1 1.5-4.6 1.2-36.6-.3-29.8-.1-36.4 1-36 .7.2 4 .6 7.3.9 6 .5 6.1.4 8.9-3 1.9-2.5 3.3-3.3 4.6-2.9 3.4 1.1 8 1.4 7.5.4-.4-.5-1.3-.9-2.1-.9-2.3 0-10.6-4-13.3-6.4-1.3-1.1-3.4-3.8-4.8-5.9-1.3-2.2-2.7-3.6-3-3.3-.7.7 3.5 7 7.2 10.8l2.6 2.8H629l.1-17c0-16.4.1-17.1 2.4-19.9 3.1-3.6 3.7-9.8 1.1-11.7-2.1-1.5-2.2-1.4 4.9-3.3 3.6-.9 3.4-1-2.5-.5-7.3.6-14 2.3-14 3.6 0 .5 1.6.6 3.5.2 2.5-.4 4.3-.1 6 1 2.4 1.6 3.7 4.5 1.4 3-.8-.4-.9.3-.4 2.4.8 3.7-1.2 5.4-3.2 2.7-1.8-2.6-1.6-4.5.5-4.6 1.2 0 1-.3-.8-1-3.4-1.4-18.4-.4-22 1.5-2.7 1.3-3 1.3-3-.3 0-2.9 2.3-4.8 6.3-5.4 5.8-.9 8.1-4.3 11.7-17.3 3.9-14.1 7.4-23.1 10.4-26.9l2.4-2.9 3.8 2.9c7.1 5.4 26.8 22.7 30.6 26.9 2.1 2.2 3.9 4.7 3.9 5.3.1 1.2.4 2.3.9 4 .1.5.6-.5 1.1-2.2.5-1.9.5-3.1-.2-3.6-.6-.3-1.1-1-1.2-1.4-.2-1-8.3-8.6-13.7-12.9-1.9-1.6-6.8-5.8-10.9-9.5-7.3-6.5-13.1-11.1-13.9-11.1-.3 0-1.9 1.5-3.6 3.3zm-18.3 69.3c-.1 9.8-.2 19.6-.2 21.6-.1 3.6-.2 3.8-3.6 3.8-2.3 0-3.7-.6-4.3-1.8-.5-.9-.9-6.5-.8-12.4.1-8.7.4-11 1.9-12.6 1.8-1.9 1.8-2.2-.2-6.5-1.2-2.5-2.1-5-2.1-5.6 0-.5-1-.7-2.2-.4-2 .4-2.1.3-.5-.7.9-.6 2.1-.9 2.6-.6.5.3 1.9-.2 3.1-1.2 1.3-1 3.2-1.8 4.4-1.7 2.1.2 2.1.5 1.9 18.1zm-18.5-4.3c.7.8.8 2.6.2 5.1-.8 3.6-.7 3.8 2 4.8 1.6.5 3.1 1.6 3.4 2.5 1 2.5-.2 2.8-2.7.6-1.2-1.2-3.1-2.3-4.2-2.5-1.1-.2-1.9-1-1.7-1.7.1-.7.4-3.3.5-5.7.2-4.6.7-5.3 2.5-3.1z"/><path d="M632 306.2c-.7 2.4-1.6 5.6-2.1 7.3-.5 1.6-1.2 5.2-1.4 8-.4 4.2 0 3.4 2.3-4.7 1.5-5.3 3-10 3.5-10.4.7-.7 9.4 8.2 18 18.6 5.1 6.1 4.8 7-2.1 6.6-2.3-.2-4.2.1-4.2.6 0 .4 1.6.9 3.5.9 1.9.1 4 .3 4.5.4.6.1 2 .3 3.3.4 2.1.2 2.1.3.2 1.1-1.1.4-4.1 1.5-6.6 2.4-2.6 1-6.5 3.5-8.8 5.8-4.1 4.2-7.6 12.2-6.8 15.5.3 1.3.6.9 1.1-1.2 3-12.5 13.7-21.7 23.4-20.1 2.2.3 6.5 1.7 9.6 3.1 4.7 2.1 6 3.2 7.3 6.3 2 4.7 1.3 13.4-1.5 18.9-2.1 4.1-8.3 10.2-10.5 10.4-.7.1-2.4.2-3.9.3-3.3.3-9.7-2.3-11.8-4.9-.8-1-2.3-3.6-3.3-5.9l-1.7-4.1.6 3.5c.9 4.8 1.9 6.5 5.7 9.4 6.3 4.8 15.3 4.5 20.7-.7 6.9-6.6 10-18 7.4-26.6-.8-2.5-1.4-5.6-1.4-6.9 0-1.6-.6-2.2-2.2-2.2-1.9 0-2 .2-.8 1s1.2 1-.5 1c-3.1 0-15.5-6.5-15.5-8.1 0-.4 1.7.1 3.8 1.1 3.8 1.9 6 2.3 10.1 2.1 3.5-.2 2.2-.9-2.6-1.5-2.3-.2-5-.9-6-1.5-2.5-1.3-21.5-20.6-25.5-25.9-1.8-2.3-3.5-4.2-3.9-4.2-.3 0-1.2 1.9-1.9 4.2zM591.4 308c.2 1.9.4 5 .5 6.9 0 1.9.4 3.1.8 2.8 1-1 .4-11-.8-12.2-.6-.6-.8.4-.5 2.5zM555.8 313.6c-.5.4-.8 3.1-.8 6 0 4.5-.4 5.7-3 8.3-1.7 1.6-5.4 3.9-8.3 5-5.2 2.1-5.2 2.1-1.2 1.6 2.2-.3 4.6-.6 5.3-.7 2.3-.2 8.1-7.6 8.7-11.1.8-4.1.3-10.2-.7-9.1zM574.5 318.7c-1 3.2-1.9 6-2 6.3-.7 2.4-3 6.9-5.7 11-3.1 4.8-5.8 6.6-10.5 7.3-1.2.2-2.6.7-3 1.1-1.2 1.4 8.8-.3 10.5-1.7 1.4-1 1.5-.9.8.8-.5 1.1-1 2.9-1.2 4-.7 3.2 7.3-13.4 9.6-20 1.1-3.3 2.5-6.7 3.1-7.5 2-2.9.2 4.3-3.5 14-1.9 5.1-3.4 9.6-3.1 9.8.6.6 4.1-6.7 5.5-11.6.7-2.3 1.6-4.2 2-4.2.4 0 1.1 2.1 1.5 4.6.8 5.8 1.4 7.4 2.7 7.4.6 0 .7-1.1.3-2.8-.7-2.8-1.1-4.6-2-8.5-.3-1.2-.8-4.7-1.1-7.7-1-8.3-1.8-8.7-3.9-2.3zM263.1 330.7c-2.3.5-2.3.6-1.6 7.6 1.1 9.7 1.3 91.5.3 110.1-.6 10.8-.5 15.2.3 15.7 1.8 1 15.1.8 17.2-.3 1.6-.8 1.8-1.7 1.2-5.6-.7-5.4-1.2-35.4-1.7-89.5l-.2-37.7h-5.2c-2.9 0-5.8-.2-6.6-.4-.7-.2-2.4-.1-3.7.1zM463.9 330.8l-4.6.3v48.2c0 26.5-.1 56.2-.3 66-.4 15.3-.2 18 1.1 18.7 1.2.7 13.4.8 17.1.1.4 0 .5-5.6.3-12.4-.3-6.7-.7-36.1-.9-65.4-.2-29.2-.6-53.6-1-54.1-.7-1.2-5.6-1.8-11.7-1.4zM531.6 337.4c.3.9 1.1 1.6 1.6 1.6 1.3 0 .5-2.3-1-2.8-.7-.2-1 .2-.6 1.2zM702 336.5c-.1.5-.3 1.7-.4 2.5-.2.8 0 2.4.4 3.5.6 1.8.7 1.7 1.2-.6.2-1.4.1-3.4-.3-4.5-.4-1-.8-1.5-.9-.9zM529 339c0 .5.5 1 1 1 .6 0 1-.5 1-1 0-.6-.4-1-1-1-.5 0-1 .4-1 1z"/><path d="M651.3 347.5c-2.5 1.7-6.3 7.6-6.3 9.6 0 .8 1-.2 2.2-2.1 2.8-4.4 3.8-5.4 6.7-6.9 4.9-2.7 12.6 1.2 14.2 7.3.8 2.9-1.3 8.1-3.9 9.5-2.3 1.2-8.1-.1-9.4-2.1-1.1-1.8-1-6.6.2-7.3.6-.3 1 .3 1 1.4 0 2.6 2.9 4.2 5.2 3 2.5-1.3 2.3-5.6-.3-6.9-4.7-2.6-9 1.3-8.3 7.5.4 3.8 3.9 6.4 8.6 6.5 2.9 0 4.2-.7 6.3-3.2 2.3-2.7 2.5-3.7 1.9-7.2-.8-5-2.7-7.9-6-9.4-3.5-1.7-9.5-1.5-12.1.3zM698.9 355.2c-1.3 3.9-3.7 9.1-5.3 11.6-3.3 5-10.9 11.4-16.4 13.8-2 .9-5.4 2.5-7.4 3.5-2 1.1-4 1.9-4.5 1.8-2.4-.4-4.2.2-3.7 1.4.2.7-1 2.8-2.7 4.7-4.8 5.4-8.8 11.6-10.6 16.2-1.9 5.4-2.6 21.8-1.1 27.8 3.7 14.6 18.2 28 34.8 32.4 5.3 1.4 18.7 1.5 23.9.3 5.4-1.4 14.9-6.7 19.6-10.9 4.4-4.1 4.8-4.7 3.5-6.2-.7-1-3-2.6-5.1-3.6l-3.7-1.9-7.3 6.5c-4.1 3.5-9 6.9-10.9 7.4-9.8 2.8-20.6-.5-28.7-8.6-6.6-6.6-9.3-12.7-10-22.5l-.6-7.6 29.9-.2c29.9-.2 39.8-.6 41.6-1.7 1.7-1 .2-7.7-3.1-14.7-7-14.6-23.9-25.7-39.2-25.7-2.7 0-4.9-.4-4.9-.9 0-.4 1.6-2.5 3.6-4.6 6.1-6.6 9.4-13 11-21.8 1-5.7 0-4.4-2.7 3.5zm.5 34.2c1.9.8 5.1 3 7.3 4.9 4.4 4 9.9 13.7 9 16-.8 2.2-49.5 2.3-50.3.2-1.2-3.1 7.8-16 13.7-19.7 5.8-3.7 13.6-4.2 20.3-1.4zM634.9 363.2c-.5 1.8-.6 3.8-.1 3.4.7-.8 1.2-3.6.6-3.6-.2 0-.4.1-.5.2zM392.9 380.2c-30.8 7.8-44.3 45-25.5 70.6 9.6 13 24 20 38.8 18.8 7-.6 18.1-4.3 22.8-7.6l2.9-2 .3 2.2c.4 3.1-.9 19-2.2 26.3-1.4 7.6-2.7 11-6.2 16.2-3.3 5-3.4 5.5-.8 7.8 1.9 1.7 2.1 1.7 6 0 7.8-3.5 15.3-13.5 17.4-23.2 1.3-5.9 2.4-38.6 2.9-90.3l.2-14.5-8.5-.1c-4.7-.1-9 .3-9.7.8-.8.6-4.2-.2-10-2.6-10.8-4.3-18.6-4.9-28.4-2.4zm19.6 9.3c4.7 1.7 11.2 8.2 14.4 14 6.8 12.8 5.9 32.9-2 44.8-11.8 17.9-32.9 16.6-43.8-2.6-10.5-18.4-5.7-44.2 9.9-54 7-4.4 13.8-5.1 21.5-2.2zM108.5 379.6c-6.2 1.5-12.4 3.9-16.1 6.5-4.1 2.8-4.3 2.8-4.9.9-.3-1.1-1.4-2-2.3-2.1-2.7-.1-11.5-.1-13.4 0-1.5.1-1.6 1.6-1.3 14.8.2 8.2.7 38.9 1 68.3.8 61.7.7 59.2 2.1 59.7 1.4.5 16.4-15.1 16.4-17.1 0-.9-.4-1.6-.8-1.6-.5 0-1-5.7-1.1-12.8-.5-22.9-.6-36.2-.3-36.2.1 0 2 1.1 4.1 2.5 9.7 6.4 24.8 9 35.9 6.1 11.5-3.1 23.4-13.1 29.2-24.7 2.9-5.6 3.2-7.3 3.4-15.8.3-16.5-1.7-23.2-9.6-33.3-7.3-9.3-20.4-15.5-33-15.6-4 0-8.2.2-9.3.4zm16.1 9.4c4.6 1.6 12.8 10 15.8 16.4 11.3 23.8-2.4 55.5-23.9 55.6-6.4 0-14.2-3.6-18.1-8.4-1.7-1.9-4.5-6.5-6.3-10.1-2.7-5.5-3.3-7.9-3.5-14.2-.3-10.2.9-17.4 4-23.6 6.9-13.8 19.3-19.9 32-15.7zM196.6 381.1c-13.5 4.7-25.1 16.6-29 29.7-2.4 8.2-1.6 23 1.6 30.8 3.3 8.3 9 15.3 16.3 20.3 8.6 5.8 12.9 7.3 21.9 7.7 21.3.9 38.9-10.9 45.7-30.7 5.3-15.4 1.1-34.2-10.3-46.1-11.8-12.4-30.4-17.1-46.2-11.7zm23.5 9c5.8 2.9 9.6 6.6 12.9 12.4 9.3 16.3 6.9 38.7-5.6 51.2-5.4 5.4-9.7 7.3-16.4 7.3-15.8 0-28.3-15.8-28.3-36 0-26 19.4-44.1 37.4-34.9zM513.9 381.3c-11.5 4.3-20 12.1-25.7 23.6-3.6 7.4-3.7 7.6-3.6 19.5 0 10.9.3 12.7 2.7 17.9 9.2 20.2 28.4 30.5 49.4 26.7 13.6-2.5 24.9-11 31.9-24.3l3.9-7.2V425c0-12.3 0-12.6-3.6-20-8.2-17-23.1-26.3-41.5-25.9-5.2.1-9.9.9-13.5 2.2zm30.3 12.6c15.3 12.9 16.5 43.2 2.1 58.7-6.1 6.6-9.1 7.9-17.8 7.9-7.5 0-8.3-.2-12.8-3.5-6.3-4.5-12.2-13.4-13.8-20.8-1.9-9.1-.8-23.7 2.4-30.5 2.8-6.1 10-14.1 14.4-15.9 8.6-3.5 18.2-2 25.5 4.1zM333.9 385.6c-.6.8-.8 3.1-.3 6 .4 2.7.8 16 .8 29.6l.2 24.9-3.7 5.2c-4.1 5.8-9.4 9.3-15.5 10.2-4.7.8-7-.7-8.4-5.3-1-3.8-.6-68.3.4-70.1.5-.8-2.2-1.1-9-1.1h-9.7l.6 33.2c.6 31.9 1.1 37.9 3.5 42.3 4.3 8.1 19.2 12.1 28 7.6 2-1 5.8-3.9 8.5-6.3 2.6-2.5 4.9-4.3 5-4.1.2.2.2 5.1.1 10.9-.5 16.6-3.5 30.4-7.9 36.4-1.4 1.9-2.5 4.1-2.5 5.1 0 2.4 2.6 4.2 5.3 3.5 3.9-.9 12.3-9.7 15.7-16.1 4.8-9.3 4.9-11.4 6.6-80.5.3-14 .6-27.1.7-29l.2-3.5-8.8-.1c-6-.1-9 .3-9.8 1.2zM732 460.7c-3.2 2.3-5.1 7.2-3.6 9.7 3.5 6.2 9.9 7.4 14.7 2.7 3.6-3.7 3.7-6.2 0-10.3-3.2-3.6-7.7-4.5-11.1-2.1zm8.1 1.8c2.7 1.7 4 5.1 2.9 7.9-1.7 4.7-9.5 4.7-12 .1-3.1-5.9 3.3-11.5 9.1-8z"/><path d="M733.6 463.7c-.3.4-.6 2.4-.6 4.5 0 3.8 1.5 5.2 2.6 2.3.4-.8 1-1.5 1.5-1.5s.9.7.9 1.5.5 1.5 1 1.5c1.5 0 1.6-5.7.1-7.3-1-1-4.8-1.7-5.5-1zm4.4 2.1c0 1.3-1.2 2.2-2.2 1.6-1-.6-.1-2.4 1.3-2.4.5 0 .9.4.9.8z"/></svg>