<svg id="Layer_1" data-name="Layer 1" xmlns="http://www.w3.org/2000/svg" xmlns:xlink="http://www.w3.org/1999/xlink" viewBox="0 0 15046.61 2043.44"><defs><style>.cls-1{fill:url(#linear-gradient);}.cls-2{fill:#fff;}.cls-3{clip-path:url(#clip-path);}.cls-4{opacity:0.2;}.cls-5{fill:url(#linear-gradient-3);}.cls-6{fill:url(#linear-gradient-4);}.cls-7{fill:url(#linear-gradient-5);}.cls-8{fill:url(#linear-gradient-6);}.cls-9{fill:url(#linear-gradient-7);}.cls-10{fill:url(#linear-gradient-8);}.cls-11{fill:#181618;}.cls-12,.cls-13{fill:none;stroke-miterlimit:10;}.cls-12{stroke:#000;}.cls-13{stroke-width:0.5px;stroke:url(#linear-gradient-9);}</style><linearGradient id="linear-gradient" x1="3.44" y1="588.89" x2="1007.91" y2="10.04" gradientUnits="userSpaceOnUse"><stop offset="0" stop-color="#f06bda"/><stop offset="0.1" stop-color="#e76fda"/><stop offset="0.26" stop-color="#cf7bda"/><stop offset="0.45" stop-color="#a78ed9"/><stop offset="0.69" stop-color="#70a8d9"/><stop offset="0.95" stop-color="#2acad8"/><stop offset="1" stop-color="#1bd1d8"/></linearGradient><clipPath id="clip-path" transform="translate(6594.61 1383.38)"><rect class="cls-1" width="1027.49" height="589.64"/></clipPath><linearGradient id="linear-gradient-3" x1="-154.87" y1="312.85" x2="839.39" y2="-255.78" gradientUnits="userSpaceOnUse"><stop offset="0" stop-color="#8361d9"/><stop offset="1" stop-color="#5a137c"/></linearGradient><linearGradient id="linear-gradient-4" x1="-25.18" y1="539.61" x2="969.08" y2="-29.02" xlink:href="#linear-gradient-3"/><linearGradient id="linear-gradient-5" x1="-82.55" y1="419.48" x2="911.7" y2="-149.15" xlink:href="#linear-gradient-3"/><linearGradient id="linear-gradient-6" x1="-58.67" y1="481.05" x2="935.59" y2="-87.58" xlink:href="#linear-gradient-3"/><linearGradient id="linear-gradient-7" x1="72.26" y1="709.98" x2="1066.51" y2="141.35" xlink:href="#linear-gradient-3"/><linearGradient id="linear-gradient-8" x1="159.32" y1="862.22" x2="1153.58" y2="293.58" xlink:href="#linear-gradient-3"/><linearGradient id="linear-gradient-9" x1="5292.47" y1="2030.27" x2="5372.58" y2="1921.65" xlink:href="#linear-gradient-3"/></defs><line class="cls-2" x1="6594.61" y1="1392.45" x2="7622.1" y2="1392.45"/><rect class="cls-1" x="6594.61" y="1383.38" width="1027.49" height="589.64"/><g class="cls-3"><g class="cls-4"><path class="cls-5" d="M258.37-25.4l-175,320.22H63.18L17.34,213.9l-24,14.24-11.81-19.8,58-34.38L80.9,247.24l149-272.64Z" transform="translate(6594.61 1383.38)"/><path class="cls-6" d="M196,491H125.79l-12.06,34.26H85l60.08-167.94H177L237,525.22h-29ZM130,336.41a14.55,14.55,0,1,1,10.25,4.23A13.93,13.93,0,0,1,130,336.41Zm58.27,132.11L161,390.58l-27.51,77.94ZM171.52,336.41a14.55,14.55,0,1,1,10.25,4.23A13.93,13.93,0,0,1,171.52,336.41Z" transform="translate(6594.61 1383.38)"/><path class="cls-7" d="M506.14,118.42H448.89a20.8,20.8,0,0,0,6.66,14.42,21.08,21.08,0,0,0,14.69,5.44q12.51,0,17.68-10.48h16.73a33.7,33.7,0,0,1-12.31,16.93q-8.91,6.6-22.1,6.6A38.27,38.27,0,0,1,451,146.5a34.25,34.25,0,0,1-13.32-13.6,41.44,41.44,0,0,1-4.83-20.33,42.45,42.45,0,0,1,4.69-20.33,33,33,0,0,1,13.19-13.53A39.2,39.2,0,0,1,470.24,74a38.18,38.18,0,0,1,18.9,4.62,32.69,32.69,0,0,1,12.92,13,39.15,39.15,0,0,1,4.63,19.24A47.65,47.65,0,0,1,506.14,118.42ZM490.5,105.91a17.66,17.66,0,0,0-6.12-13.74A21.91,21.91,0,0,0,469.56,87a19.92,19.92,0,0,0-13.74,5.1q-5.7,5.1-6.8,13.81ZM483.84,55,453.78,69.87V58.44l30.06-16.59Z" transform="translate(6594.61 1383.38)"/><path class="cls-8" d="M392.89,234.6h29.25a60,60,0,0,1-18.66,29.61Q390,275.75,369.82,277.64v9.76q13.8,0,22.36,6.54t8.56,18.43q0,11.88-8.56,18.9t-21.64,7H339.15V321.16h25.92c4.44,0,7.76-.63,10-1.9s3.33-3.57,3.33-6.89-1.11-5.63-3.33-6.9-5.55-1.9-10-1.9H352V277.41a59.94,59.94,0,0,1-28.54-10.83,59.18,59.18,0,0,1-19.14-23.3q-6.78-14.39-6.78-32.94,0-20.21,8.2-35.56a58.4,58.4,0,0,1,22.71-23.66q14.51-8.33,33.3-8.32,23.77,0,39.36,11.3t21,32.22H392.89a30.9,30.9,0,0,0-11.41-15.22q-7.85-5.47-19.74-5.47-16.65,0-26.52,11.77t-9.87,32.94q0,21.16,9.87,33.06t26.52,11.89Q385.28,255.29,392.89,234.6Z" transform="translate(6594.61 1383.38)"/><path class="cls-9" d="M539.92,475.19Q529,465.28,529,448.11q0-17.88,11.33-26.91t30.09-9v-14h19.12V426h-5.84q-17.18,0-26.29,4.6t-9.12,17.53q0,9.38,5.4,14.69t15,5.31q9.55,0,15.05-5.13t5.48-14.34h18.94a37.31,37.31,0,0,1-4.78,18.94,32.68,32.68,0,0,1-13.71,12.92,45,45,0,0,1-20.8,4.6Q550.8,485.1,539.92,475.19Zm27.52-91.51V360.31h22.84v23.37Z" transform="translate(6594.61 1383.38)"/><path class="cls-10" d="M773.24,485.23v94.68H753.65V565a30.68,30.68,0,0,1-12.45,12.2,37.58,37.58,0,0,1-17.79,4.12q-10.3,0-17.35-5.32v49H686.64V485.23h19.42v52.92q0,12.72,6.36,19.51t17.35,6.78q11,0,17.44-6.78t6.44-19.51V485.23Z" transform="translate(6594.61 1383.38)"/></g></g><path class="cls-11" d="M81,229.92h5.33l4.37,19.25,5-19.25h5.55l4.76,19.15,4.4-19.15h5.36l-6.92,24.79h-5.86l-4.66-17.65-4.86,17.65-5.83,0Z" transform="translate(6594.61 1383.38)"/><path class="cls-11" d="M127.69,255c-5.72,0-9.88-4-9.88-10.15s4-10.16,9.88-10.16,9.69,3.87,9.69,9.73a11.28,11.28,0,0,1-.14,1.92H122.85a4.6,4.6,0,0,0,4.73,4.54,4,4,0,0,0,3.94-2.38h5.37A9.15,9.15,0,0,1,127.69,255Zm-4.8-12h9.34a4.37,4.37,0,0,0-4.69-4.23A4.57,4.57,0,0,0,122.89,243Z" transform="translate(6594.61 1383.38)"/><path class="cls-11" d="M157,255c-4.93,0-8.38-2.87-8.59-6.53h5c.17,1.49,1.56,2.63,3.55,2.63s3-.89,3-2c0-3.51-11.12-1.28-11.12-8.49,0-3.27,2.91-5.89,7.78-5.89s7.64,2.59,7.92,6.5H159.8c-.14-1.53-1.35-2.56-3.3-2.56s-2.81.74-2.81,1.88c0,3.59,10.9,1.35,11.05,8.56C164.74,252.48,161.79,255,157,255Z" transform="translate(6594.61 1383.38)"/><path class="cls-11" d="M168.29,229.78a3.06,3.06,0,1,1,3.06,2.91A2.91,2.91,0,0,1,168.29,229.78Zm.53,5.26h5v19.67h-5Z" transform="translate(6594.61 1383.38)"/><path class="cls-11" d="M206.23,243.84c0-3.12-1.74-4.75-4.37-4.75s-4.4,1.63-4.4,4.75v10.87h-5V243.84c0-3.12-1.74-4.75-4.37-4.75s-4.44,1.63-4.44,4.75v10.87h-5V235h5v2.38a7.16,7.16,0,0,1,5.79-2.67,7.54,7.54,0,0,1,6.93,3.77,7.79,7.79,0,0,1,6.75-3.77c4.72,0,8.06,3,8.06,8.42v11.54h-5Z" transform="translate(6594.61 1383.38)"/><path class="cls-11" d="M227.4,234.72c5,0,9,3.94,9,10.08s-3.94,10.23-9,10.23a8,8,0,0,1-6.5-3.12v12.18h-5V235h5v2.84A7.88,7.88,0,0,1,227.4,234.72Zm-1.31,4.37c-2.66,0-5.19,2.06-5.19,5.79s2.53,5.79,5.19,5.79,5.22-2.14,5.22-5.87S228.79,239.09,226.09,239.09Z" transform="translate(6594.61 1383.38)"/><path class="cls-11" d="M240,228.43h5v26.28h-5Z" transform="translate(6594.61 1383.38)"/><path class="cls-11" d="M249.36,229.78a3.06,3.06,0,0,1,6.11,0,3.06,3.06,0,0,1-6.11,0Zm.53,5.26h5v19.67h-5Z" transform="translate(6594.61 1383.38)"/><path class="cls-11" d="M260.3,239.12h-2.24V235h2.24v-1c0-4.83,2.74-7.07,8.28-6.93v4.2c-2.42-.08-3.23.71-3.23,2.91V235h3.44v4.08h-3.44v15.59H260.3Z" transform="translate(6594.61 1383.38)"/><path class="cls-11" d="M285.56,235h5.29l-12.18,29h-5.3l4.27-9.8L269.75,235h5.58l5.08,13.74Z" transform="translate(6594.61 1383.38)"/><path class="cls-11" d="M309.5,255c-4.94,0-8.38-2.87-8.59-6.53h5c.18,1.49,1.57,2.63,3.56,2.63s3-.89,3-2c0-3.51-11.12-1.28-11.12-8.49,0-3.27,2.91-5.89,7.78-5.89s7.63,2.59,7.92,6.5h-4.76c-.14-1.53-1.35-2.56-3.31-2.56s-2.8.74-2.8,1.88c0,3.59,10.9,1.35,11.05,8.56C317.25,252.48,314.3,255,309.5,255Z" transform="translate(6594.61 1383.38)"/><path class="cls-11" d="M332.81,234.72c5,0,9,3.94,9,10.08s-3.94,10.23-9,10.23a8,8,0,0,1-6.5-3.12v12.18h-5V235h5v2.84A7.85,7.85,0,0,1,332.81,234.72Zm-1.32,4.37c-2.66,0-5.18,2.06-5.18,5.79s2.52,5.79,5.18,5.79,5.22-2.14,5.22-5.87S334.19,239.09,331.49,239.09Z" transform="translate(6594.61 1383.38)"/><path class="cls-11" d="M354,255c-5.71,0-9.87-4-9.87-10.15s4.05-10.16,9.87-10.16,9.7,3.87,9.7,9.73a11.28,11.28,0,0,1-.14,1.92H349.18a4.6,4.6,0,0,0,4.73,4.54,4,4,0,0,0,3.94-2.38h5.37A9.15,9.15,0,0,1,354,255Zm-4.79-12h9.34a4.37,4.37,0,0,0-4.69-4.23A4.57,4.57,0,0,0,349.22,243Z" transform="translate(6594.61 1383.38)"/><path class="cls-11" d="M375.79,234.72c4.9,0,8.21,2.55,9.27,7H379.7a3.87,3.87,0,0,0-3.94-2.74c-2.77,0-4.62,2.1-4.62,5.94s1.85,5.89,4.62,5.89a3.74,3.74,0,0,0,3.94-2.7h5.36c-1.06,4.19-4.37,7-9.27,7-5.68,0-9.73-4-9.73-10.15S370.11,234.72,375.79,234.72Z" transform="translate(6594.61 1383.38)"/><path class="cls-11" d="M388.19,229.78a3.06,3.06,0,1,1,3.06,2.91A2.91,2.91,0,0,1,388.19,229.78Zm.53,5.26h5v19.67h-5Z" transform="translate(6594.61 1383.38)"/><path class="cls-11" d="M406.31,234.72a7.79,7.79,0,0,1,6.5,3.12V235h5v19.67h-5v-2.87a7.77,7.77,0,0,1-6.54,3.19c-5,0-8.95-4.08-8.95-10.23S401.3,234.72,406.31,234.72Zm1.28,4.37c-2.67,0-5.19,2-5.19,5.71s2.52,5.87,5.19,5.87,5.22-2.07,5.22-5.79S410.32,239.09,407.59,239.09Z" transform="translate(6594.61 1383.38)"/><path class="cls-11" d="M422.69,228.43h5v26.28h-5Z" transform="translate(6594.61 1383.38)"/><path class="cls-11" d="M91.17,279.67c4.9,0,8.2,2.55,9.27,7H95.07a3.86,3.86,0,0,0-3.94-2.74c-2.77,0-4.62,2.1-4.62,5.93s1.85,5.9,4.62,5.9a3.74,3.74,0,0,0,3.94-2.7h5.37c-1.07,4.19-4.37,7-9.27,7-5.69,0-9.74-4-9.74-10.16S85.48,279.67,91.17,279.67Z" transform="translate(6594.61 1383.38)"/><path class="cls-11" d="M104.1,273.38h5v9.06a7.56,7.56,0,0,1,6.11-2.74c4.44,0,7.67,3,7.67,8.42v11.54h-5V288.79c0-3.16-1.74-4.86-4.37-4.86s-4.44,1.7-4.44,4.86v10.87h-5Z" transform="translate(6594.61 1383.38)"/><path class="cls-11" d="M135.29,279.67a7.79,7.79,0,0,1,6.5,3.12V280h5v19.68h-5v-2.87a7.77,7.77,0,0,1-6.54,3.19c-5,0-9-4.08-9-10.23S130.28,279.67,135.29,279.67Zm1.28,4.36c-2.67,0-5.19,2-5.19,5.72s2.52,5.86,5.19,5.86,5.22-2.06,5.22-5.79S139.3,284,136.57,284Z" transform="translate(6594.61 1383.38)"/><path class="cls-11" d="M156.64,299.66h-5V280h5V283a6.81,6.81,0,0,1,6-3.34v5.22h-1.32c-3,0-4.72,1.14-4.72,4.94Z" transform="translate(6594.61 1383.38)"/><path class="cls-11" d="M173.73,279.67a7.8,7.8,0,0,1,6.5,3.12V280h5v19.68h-5v-2.87a7.78,7.78,0,0,1-6.54,3.19c-5,0-8.95-4.08-8.95-10.23S168.72,279.67,173.73,279.67ZM175,284c-2.66,0-5.18,2-5.18,5.72s2.52,5.86,5.18,5.86,5.23-2.06,5.23-5.79S177.74,284,175,284Z" transform="translate(6594.61 1383.38)"/><path class="cls-11" d="M198.56,279.67c4.9,0,8.2,2.55,9.27,7h-5.36a3.88,3.88,0,0,0-3.95-2.74c-2.77,0-4.62,2.1-4.62,5.93s1.85,5.9,4.62,5.9a3.76,3.76,0,0,0,3.95-2.7h5.36c-1.07,4.19-4.37,7-9.27,7-5.69,0-9.74-4-9.74-10.16S192.87,279.67,198.56,279.67Z" transform="translate(6594.61 1383.38)"/><path class="cls-11" d="M212.27,284.07h-2.34V280h2.34v-4.86h5V280h4.4v4.09h-4.4v9.52c0,1.31.53,1.88,2.1,1.88h2.3v4.19h-3.12c-3.77,0-6.29-1.59-6.29-6.11Z" transform="translate(6594.61 1383.38)"/><path class="cls-11" d="M233.87,300c-5.72,0-9.88-4-9.88-10.16s4-10.15,9.88-10.15c5.68,0,9.7,3.87,9.7,9.73a11.29,11.29,0,0,1-.15,1.92H229a4.6,4.6,0,0,0,4.72,4.54,4.06,4.06,0,0,0,4-2.38h5.36A9.14,9.14,0,0,1,233.87,300Zm-4.8-12h9.35a4.38,4.38,0,0,0-4.69-4.23A4.58,4.58,0,0,0,229.07,288Z" transform="translate(6594.61 1383.38)"/><path class="cls-11" d="M252.16,299.66h-5V280h5V283a6.83,6.83,0,0,1,6-3.34v5.22h-1.31c-2.95,0-4.73,1.14-4.73,4.94Z" transform="translate(6594.61 1383.38)"/><path class="cls-11" d="M270.78,284.07h-2.34V280h2.34v-4.86h5V280h4.4v4.09h-4.4v9.52c0,1.31.53,1.88,2.09,1.88h2.31v4.19h-3.12c-3.77,0-6.29-1.59-6.29-6.11Z" transform="translate(6594.61 1383.38)"/><path class="cls-11" d="M297.32,280h5.29l-12.19,29h-5.29l4.26-9.8L281.51,280h5.57l5.08,13.75Z" transform="translate(6594.61 1383.38)"/><path class="cls-11" d="M316.75,279.67c5,0,9,3.94,9,10.08s-3.95,10.23-9,10.23a8,8,0,0,1-6.5-3.12V309h-5V280h5v2.85A7.85,7.85,0,0,1,316.75,279.67ZM315.43,284c-2.66,0-5.18,2.06-5.18,5.79s2.52,5.79,5.18,5.79,5.23-2.13,5.23-5.86S318.13,284,315.43,284Z" transform="translate(6594.61 1383.38)"/><path class="cls-11" d="M328.83,274.73a3.06,3.06,0,1,1,3.05,2.91A2.92,2.92,0,0,1,328.83,274.73Zm.53,5.25h5v19.68h-5Z" transform="translate(6594.61 1383.38)"/><path class="cls-11" d="M353,288.79c0-3.16-1.74-4.86-4.37-4.86s-4.44,1.7-4.44,4.86v10.87h-5V280h5v2.46a7.35,7.35,0,0,1,5.93-2.74c4.58,0,7.85,3,7.85,8.42v11.54h-5Z" transform="translate(6594.61 1383.38)"/><path class="cls-11" d="M370.43,279.67a7.71,7.71,0,0,1,6.5,3.12V280h5v19.83c0,5.32-3.27,9.55-9.74,9.55-5.54,0-9.41-2.77-9.91-7.28h4.94c.5,1.78,2.34,2.95,4.83,2.95,2.74,0,4.87-1.57,4.87-5.22v-3.06a7.74,7.74,0,0,1-6.5,3.23c-5,0-9-4.08-9-10.23S365.42,279.67,370.43,279.67Zm1.28,4.36c-2.67,0-5.19,2-5.19,5.72s2.52,5.86,5.19,5.86,5.22-2.06,5.22-5.79S374.44,284,371.71,284Z" transform="translate(6594.61 1383.38)"/><path class="cls-11" d="M90.42,324.62a7.79,7.79,0,0,1,6.5,3.12v-2.81h5v19.68h-5v-2.87a7.77,7.77,0,0,1-6.54,3.19c-5,0-8.95-4.08-8.95-10.23S85.41,324.62,90.42,324.62ZM91.7,329c-2.67,0-5.19,2-5.19,5.72s2.52,5.86,5.19,5.86,5.22-2.06,5.22-5.79S94.43,329,91.7,329Z" transform="translate(6594.61 1383.38)"/><path class="cls-11" d="M115.25,324.62c4.9,0,8.21,2.55,9.27,7h-5.36a3.87,3.87,0,0,0-3.94-2.74c-2.77,0-4.62,2.1-4.62,5.93s1.85,5.9,4.62,5.9a3.74,3.74,0,0,0,3.94-2.7h5.36c-1.06,4.19-4.37,7-9.27,7-5.68,0-9.73-4-9.73-10.16S109.57,324.62,115.25,324.62Z" transform="translate(6594.61 1383.38)"/><path class="cls-11" d="M133.16,344.61h-5V324.93h5V328a6.8,6.8,0,0,1,6-3.34v5.22h-1.31c-2.95,0-4.72,1.14-4.72,4.94Z" transform="translate(6594.61 1383.38)"/><path class="cls-11" d="M151.27,344.93c-5.68,0-10-4-10-10.16a10.13,10.13,0,1,1,20.25,0C161.54,341,157,344.93,151.27,344.93Zm0-4.33c2.63,0,5.15-1.92,5.15-5.83S154,329,151.34,329s-5,1.88-5,5.82S148.61,340.6,151.27,340.6Z" transform="translate(6594.61 1383.38)"/><path class="cls-11" d="M172.73,344.93c-4.94,0-8.38-2.87-8.6-6.53h5c.18,1.49,1.57,2.63,3.56,2.63s3-.89,3-2c0-3.51-11.11-1.28-11.11-8.49,0-3.27,2.91-5.89,7.78-5.89s7.63,2.59,7.92,6.5h-4.76c-.14-1.53-1.35-2.56-3.31-2.56s-2.8.74-2.8,1.88c0,3.59,10.9,1.35,11,8.56C180.47,342.38,177.53,344.93,172.73,344.93Z" transform="translate(6594.61 1383.38)"/><path class="cls-11" d="M192.09,344.93c-4.94,0-8.38-2.87-8.59-6.53h5c.18,1.49,1.57,2.63,3.56,2.63s3-.89,3-2c0-3.51-11.12-1.28-11.12-8.49,0-3.27,2.91-5.89,7.78-5.89s7.63,2.59,7.92,6.5H194.9c-.14-1.53-1.35-2.56-3.31-2.56s-2.8.74-2.8,1.88c0,3.59,10.9,1.35,11.05,8.56C199.84,342.38,196.89,344.93,192.09,344.93Z" transform="translate(6594.61 1383.38)"/><path class="cls-11" d="M220.09,324.62a7.8,7.8,0,0,1,6.5,3.12v-2.81h5v19.68h-5v-2.87a7.78,7.78,0,0,1-6.54,3.19c-5,0-9-4.08-9-10.23S215.08,324.62,220.09,324.62Zm1.27,4.36c-2.66,0-5.18,2-5.18,5.72s2.52,5.86,5.18,5.86,5.23-2.06,5.23-5.79S224.1,329,221.36,329Z" transform="translate(6594.61 1383.38)"/><path class="cls-11" d="M236.46,318.33h5v26.28h-5Z" transform="translate(6594.61 1383.38)"/><path class="cls-11" d="M246.34,318.33h5v26.28h-5Z" transform="translate(6594.61 1383.38)"/><path class="cls-11" d="M276.14,324.62c5.05,0,9,3.94,9,10.08s-3.94,10.23-9,10.23a8,8,0,0,1-6.5-3.12V354h-5V324.93h5v2.85A7.88,7.88,0,0,1,276.14,324.62ZM274.83,329c-2.66,0-5.19,2.07-5.19,5.79s2.53,5.79,5.19,5.79,5.22-2.13,5.22-5.86S277.53,329,274.83,329Z" transform="translate(6594.61 1383.38)"/><path class="cls-11" d="M288.76,318.33h5v26.28h-5Z" transform="translate(6594.61 1383.38)"/><path class="cls-11" d="M306.34,324.62a7.79,7.79,0,0,1,6.5,3.12v-2.81h5v19.68h-5v-2.87a7.76,7.76,0,0,1-6.53,3.19c-5,0-9-4.08-9-10.23S301.33,324.62,306.34,324.62Zm1.28,4.36c-2.66,0-5.19,2-5.19,5.72s2.53,5.86,5.19,5.86,5.22-2.06,5.22-5.79S310.35,329,307.62,329Z" transform="translate(6594.61 1383.38)"/><path class="cls-11" d="M323.5,329h-2.34v-4.09h2.34v-4.86h5v4.86h4.4V329h-4.4v9.52c0,1.31.53,1.88,2.09,1.88h2.31v4.19h-3.12c-3.77,0-6.29-1.59-6.29-6.11Z" transform="translate(6594.61 1383.38)"/><path class="cls-11" d="M337,329H334.8v-4.09H337v-1c0-4.83,2.74-7.07,8.28-6.93v4.2c-2.41-.08-3.23.71-3.23,2.91v.81h3.44V329h-3.44v15.59H337Z" transform="translate(6594.61 1383.38)"/><path class="cls-11" d="M357.5,344.93c-5.69,0-10-4-10-10.16a10.13,10.13,0,1,1,20.25,0C367.76,341,363.21,344.93,357.5,344.93Zm0-4.33c2.62,0,5.15-1.92,5.15-5.83S360.2,329,357.57,329s-5,1.88-5,5.82S354.83,340.6,357.5,340.6Z" transform="translate(6594.61 1383.38)"/><path class="cls-11" d="M376.4,344.61h-5V324.93h5V328a6.8,6.8,0,0,1,6-3.34v5.22h-1.31c-2.95,0-4.72,1.14-4.72,4.94Z" transform="translate(6594.61 1383.38)"/><path class="cls-11" d="M413.3,333.74c0-3.12-1.74-4.76-4.37-4.76s-4.4,1.64-4.4,4.76v10.87h-5V333.74c0-3.12-1.74-4.76-4.37-4.76s-4.44,1.64-4.44,4.76v10.87h-5V324.93h5v2.38a7.17,7.17,0,0,1,5.79-2.66,7.51,7.51,0,0,1,6.92,3.77,7.8,7.8,0,0,1,6.75-3.77c4.73,0,8.07,3,8.07,8.42v11.54h-5Z" transform="translate(6594.61 1383.38)"/><path class="cls-11" d="M430.53,344.93c-4.93,0-8.38-2.87-8.59-6.53h5c.17,1.49,1.56,2.63,3.55,2.63s3-.89,3-2c0-3.51-11.12-1.28-11.12-8.49,0-3.27,2.91-5.89,7.78-5.89s7.64,2.59,7.92,6.5h-4.76c-.14-1.53-1.35-2.56-3.3-2.56s-2.81.74-2.81,1.88c0,3.59,10.91,1.35,11,8.56C438.28,342.38,435.33,344.93,430.53,344.93Z" transform="translate(6594.61 1383.38)"/><path class="cls-11" d="M444.57,344.86a2.91,2.91,0,1,1,3-2.91A2.93,2.93,0,0,1,444.57,344.86Z" transform="translate(6594.61 1383.38)"/><path d="M8443.53-1245.06H8429l-2.5,7.08h-5.93l12.41-34.69h6.58L8452-1238h-6ZM8429.9-1277a2.89,2.89,0,0,1-.87-2.12,2.91,2.91,0,0,1,.87-2.12,2.89,2.89,0,0,1,2.12-.87,2.91,2.91,0,0,1,2.12.87,2.91,2.91,0,0,1,.87,2.12,2.89,2.89,0,0,1-.87,2.12,2.91,2.91,0,0,1-2.12.87A2.89,2.89,0,0,1,8429.9-1277Zm12,27.29-5.63-16.1-5.68,16.1Zm-3.46-27.29a2.89,2.89,0,0,1-.87-2.12,2.91,2.91,0,0,1,.87-2.12,2.89,2.89,0,0,1,2.12-.87,2.89,2.89,0,0,1,2.12.87,2.91,2.91,0,0,1,.87,2.12,2.89,2.89,0,0,1-.87,2.12,2.89,2.89,0,0,1-2.12.87A2.89,2.89,0,0,1,8438.47-1277Z" transform="translate(6594.61 1383.38)"/><path d="M8433.16-1342.16h-14.5l-2.49,7.07h-5.93l12.41-34.68h6.58l12.4,34.68h-6Zm-1.59-4.64-5.63-16.1-5.69,16.1ZM8430-1374a5.68,5.68,0,0,1-4,1.49,5.61,5.61,0,0,1-4-1.49,5.11,5.11,0,0,1-1.62-3.94,5.14,5.14,0,0,1,1.62-4,5.62,5.62,0,0,1,4-1.5,5.68,5.68,0,0,1,4,1.5,5.14,5.14,0,0,1,1.62,4A5.11,5.11,0,0,1,8430-1374Zm-2.27-5.83a2.36,2.36,0,0,0-1.74-.7,2.3,2.3,0,0,0-1.7.7,2.5,2.5,0,0,0-.7,1.84,2.54,2.54,0,0,0,.7,1.82,2.28,2.28,0,0,0,1.7.72,2.34,2.34,0,0,0,1.74-.72,2.5,2.5,0,0,0,.7-1.82A2.46,2.46,0,0,0,8427.68-1379.79Z" transform="translate(6594.61 1383.38)"/><path class="cls-12" d="M-6350-500.08c20.64,16.77,16.13,39.23,16.13,39.23S-6358-448.8-6360-452.16s7.09-13.73,7.09-13.73c2.26-16.13-22.25-30-22.25-30-45.15-14.19-38.38,14.83-38.38,14.83a36.58,36.58,0,0,1,1,19.32c-1.29,5.13-17.41,9.7-19,14s11,2.15,21,1.49,19.67-18,22.25-23.85-.65-9-3.23-17.73-58-52.89-60-65.14,11.93-2.91,11.93-2.91,6.78,6.78,28.06,3.55c0,0,15.8-5.8,12.9-18.06s-25.8-25.15-21-42.24,13.86-24.83,26.12-24.83,21.6,8.38,22.89,13.54,1,14.1-5.16,15.92-12.57.55-14.51-2.2l-1.93-2.75s10,2.57,13.22-.65,1-10.23-3.55-11.89-11.93-5.76-16.77,0-3.22,21.06,4.2,25.18,28.05,19.6,28.37,38.63c.25,14.77-2.6,31.09-7.67,40.82Z" transform="translate(6594.61 1383.38)"/><path class="cls-12" d="M-6416.19-495.18s-31.47,17.15-54.37-1.94,9.69-54.41,9.69-54.41c4.88-5.93,12.11-17.33,12.11-17.33-7.53-2.6-17.32-.55-17.32-.55l-5.48-7.09c-8.39-1-18.06,5.8-18.06,5.8v-8.06c-5.16-.32-14.19,6.45-19,7.74s-18.7,11.61-23.18,11.61-.36-19,0-22.25-1.61-8.39-6.77-8.39-11.93,6.13-31.92,22.58-23.54,33.53-23.54,33.53.44,6.8,18.33,8c0,0,11,2.31,15,2.89,0,0-20.49,2.74-29.15-1.73,0,0,.29,11.25,28.86,14.43l19-.58s13,6.06,13,10.39-3.46,19.63-8.37,22.22-27.42,9.38-23.67,14.5,22.23,3,27.71,0,14.13-15.33,16.73-17.64,11.84-28.6,20.5-26.58,17.43,4.15,11.62,15.77c-6.68,13.36-8.94,23.8-14.43,26.9s-27.42,3.9-26.55,1.77,14.14-4.92,15-11.18,7.71-18.83,7.71-18.83,16.1-61.9,34.72-68Z" transform="translate(6594.61 1383.38)"/><path class="cls-12" d="M-6555.56-543c0-3.46,5.48,1.16,7.21,1.74s-1.44,8.65-7.21,8.08-6.64-9.24-3.47-12.41,10.4-.87,13.57,1.15,5.2,13-6.35,15.15-13.85-6.49-14.14-12,7.5-11.84,19.62-12.13" transform="translate(6594.61 1383.38)"/><circle class="cls-13" cx="5332.53" cy="1975.96" r="67.23"/></svg>