<?xml version="1.0" encoding="UTF-8" standalone="no"?>
<svg
   id="Layer_1"
   preserveAspectRatio="xMidYMid meet"
   data-name="Layer 1"
   viewBox="0 0 962.54166 140.82001"
   version="1.1"
   sodipodi:docname="logo.svg"
   width="962.54169"
   height="140.82001"
   inkscape:version="1.1 (c4e8f9ed74, 2021-05-24)"
   xmlns:inkscape="http://www.inkscape.org/namespaces/inkscape"
   xmlns:sodipodi="http://sodipodi.sourceforge.net/DTD/sodipodi-0.dtd"
   xmlns="http://www.w3.org/2000/svg"
   xmlns:svg="http://www.w3.org/2000/svg">
  <sodipodi:namedview
     id="namedview495"
     pagecolor="#ffffff"
     bordercolor="#666666"
     borderopacity="1.0"
     inkscape:pageshadow="2"
     inkscape:pageopacity="0"
     inkscape:pagecheckerboard="true"
     showgrid="false"
     fit-margin-top="0"
     fit-margin-left="0"
     fit-margin-right="0"
     fit-margin-bottom="0"
     inkscape:zoom="0.24078513"
     inkscape:cx="-811.9272"
     inkscape:cy="-560.66584"
     inkscape:window-width="3836"
     inkscape:window-height="2103"
     inkscape:window-x="0"
     inkscape:window-y="0"
     inkscape:window-maximized="1"
     inkscape:current-layer="Layer_1" />
  <defs
     id="defs460">
    <style
       id="style458">.cls-1{fill:#fff;}.cls-2{fill:#181618;}.cls-3{fill:none;stroke:#000;stroke-miterlimit:10;}</style>
  </defs>
  <path
     class="cls-1"
     d="M 238.25,123.6 H 0 L 37.71,0 c 0,0 35,10.66 81.41,10.66 C 165.53,10.66 200.53,0 200.53,0 Z"
     id="path466" />
  <path
     class="cls-2"
     d="M 342.95,70.05 H 327.66 V 105.1 H 309.35 V 13.81 h 33.6 c 22,0 33,12.42 33,28.25 0,13.85 -9.44,27.99 -33,27.99 z m -0.79,-14.78 c 10.33,0 14.91,-5.1 14.91,-13.21 0,-8.37 -4.58,-13.34 -14.91,-13.34 h -14.5 v 26.55 z"
     id="path468" />
  <path
     class="cls-2"
     d="m 418.43,106.28 c -20.92,0 -36.75,-14.65 -36.75,-37.41 0,-22.76 16.35,-37.4 37.28,-37.4 20.93,0 37.27,14.51 37.27,37.44 0,22.93 -16.74,37.37 -37.8,37.37 z m 0,-16 c 9.68,0 19,-7.06 19,-21.45 0,-14.39 -9,-21.45 -18.7,-21.45 -9.7,0 -18.48,6.97 -18.48,21.53 0,14.56 8.37,21.41 18.18,21.41 z"
     id="path470" />
  <path
     class="cls-2"
     d="m 469.7,8.31 h 18.32 V 105.1 H 469.7 Z"
     id="path472" />
  <path
     class="cls-2"
     d="m 555.95,32.64 h 19.49 l -44.91,106.73 h -19.49 l 15.69,-36.1 -29,-70.63 h 20.54 l 18.68,50.62 z"
     id="path474" />
  <path
     class="cls-2"
     d="m 613.58,31.47 c 11.38,0 19.62,5.23 23.94,11.51 V 32.64 h 18.43 v 73 c 0,19.62 -12,35.18 -35.84,35.18 -20.4,0 -34.66,-10.2 -36.49,-26.81 h 18.18 c 1.83,6.54 8.63,10.86 17.79,10.86 10.07,0 17.92,-5.76 17.92,-19.23 V 94.38 c -4.32,6.28 -12.56,11.9 -23.94,11.9 -18.44,0 -33.09,-15 -33.09,-37.67 0,-22.67 14.66,-37.14 33.1,-37.14 z m 4.71,16.08 c -9.81,0 -19.1,7.33 -19.1,21.06 0,13.73 9.29,21.58 19.1,21.58 10.07,0 19.23,-7.58 19.23,-21.32 0,-13.74 -9.16,-21.32 -19.23,-21.32 z"
     id="path476" />
  <path
     class="cls-2"
     d="m 673.88,8.31 h 18.31 v 96.79 h -18.31 z"
     id="path478" />
  <path
     class="cls-2"
     d="m 742.42,106.28 c -20.93,0 -36.76,-14.65 -36.76,-37.41 0,-22.76 16.35,-37.4 37.28,-37.4 20.93,0 37.28,14.51 37.28,37.44 0,22.93 -16.75,37.37 -37.8,37.37 z m 0,-16 c 9.67,0 19,-7.06 19,-21.45 0,-14.39 -9,-21.45 -18.7,-21.45 -9.7,0 -18.49,6.97 -18.49,21.53 0,14.56 8.38,21.41 18.19,21.41 z"
     id="path480" />
  <path
     class="cls-2"
     d="m 796.56,47.68 h -8.61 v -15 h 8.63 V 14.72 h 18.45 v 17.92 h 16.22 v 15 H 815.01 V 82.7 c 0,4.84 2,6.93 7.71,6.93 h 8.51 v 15.43 h -11.52 c -13.86,0 -23.15,-5.88 -23.15,-22.49 z"
     id="path482" />
  <path
     class="cls-2"
     d="m 847.31,47.68 h -8.63 v -15 h 8.63 V 14.72 h 18.44 v 17.92 h 16.2 v 15 h -16.2 V 82.7 c 0,4.84 2,6.93 7.72,6.93 h 8.48 v 15.43 h -11.49 c -13.86,0 -23.15,-5.88 -23.15,-22.49 z"
     id="path484" />
  <path
     class="cls-2"
     d="m 926.83,106.28 c -21.06,0 -36.36,-14.65 -36.36,-37.41 0,-22.76 14.91,-37.4 36.36,-37.4 20.93,0 35.71,14.25 35.71,35.83 a 43.14,43.14 0 0 1 -0.52,7.07 h -53 c 0.91,10.72 8.24,16.74 17.39,16.74 7.85,0 12.17,-3.92 14.52,-8.76 h 19.75 c -3.89,13.34 -15.93,23.93 -33.85,23.93 z M 909.18,62.07 h 34.4 c -0.27,-9.55 -7.85,-15.56 -17.27,-15.56 -8.76,0 -15.7,5.62 -17.13,15.56 z"
     id="path486" />
</svg>
